<svg width="201" height="40" viewBox="0 0 201 40" fill="none" xmlns="http://www.w3.org/2000/svg">
<path d="M59.5594 24.4732C59.5594 25.5771 59.2603 26.5 58.662 27.242C58.0819 27.9658 57.2933 28.5087 56.2962 28.8707C55.2991 29.2326 54.2023 29.4136 53.0058 29.4136H43.5969V10.1408H54.3383C55.2447 10.1408 56.0243 10.3851 56.6769 10.8737C57.3477 11.3442 57.8553 11.9595 58.1997 12.7195C58.5623 13.4796 58.7436 14.2668 58.7436 15.0811C58.7436 15.986 58.5079 16.8546 58.0366 17.687C57.5652 18.5014 56.8763 19.1166 55.9699 19.5329C57.0757 19.8586 57.9459 20.4377 58.5804 21.2701C59.2331 22.1026 59.5594 23.1703 59.5594 24.4732ZM55.0181 23.5774C55.0181 23.1612 54.9365 22.7993 54.7734 22.4916C54.6102 22.1659 54.3927 21.9126 54.1207 21.7316C53.8669 21.5325 53.5587 21.433 53.1962 21.433H48.0566V25.6404H53.0058C53.3865 25.6404 53.7219 25.55 54.012 25.369C54.3201 25.188 54.5649 24.9437 54.7462 24.6361C54.9275 24.3284 55.0181 23.9756 55.0181 23.5774ZM48.0566 13.941V17.9313H52.4347C52.7611 17.9313 53.0602 17.8589 53.3321 17.7142C53.6222 17.5694 53.8579 17.3522 54.0391 17.0627C54.2204 16.7551 54.3111 16.375 54.3111 15.9226C54.3111 15.4883 54.2295 15.1264 54.0663 14.8368C53.9213 14.5473 53.7219 14.3301 53.4681 14.1853C53.2143 14.0225 52.9242 13.941 52.5979 13.941H48.0566Z" fill="#282020"/>
<path d="M61.7782 9.59789H66.1291V24.3375C66.1291 24.9347 66.2379 25.3599 66.4554 25.6133C66.673 25.8666 66.9812 25.9933 67.38 25.9933C67.6519 25.9933 67.9239 25.9571 68.1958 25.8847C68.4859 25.7943 68.7397 25.6947 68.9572 25.5862L69.5283 28.8435C68.9844 29.0969 68.359 29.2959 67.6519 29.4407C66.9449 29.5855 66.2832 29.6579 65.6668 29.6579C64.4341 29.6579 63.4732 29.3321 62.7843 28.6807C62.1136 28.0111 61.7782 27.0701 61.7782 25.8576V9.59789Z" fill="#282020"/>
<path d="M70.0439 25.1518C70.0439 24.2108 70.3068 23.3874 70.8325 22.6817C71.3582 21.9759 72.0834 21.424 73.008 21.0258C73.9325 20.6096 74.9931 20.4015 76.1896 20.4015C76.7697 20.4015 77.3408 20.4558 77.9028 20.5644C78.4647 20.6549 78.9542 20.7906 79.3712 20.9715V20.3472C79.3712 19.5691 79.1355 18.9719 78.6642 18.5557C78.1928 18.1394 77.4767 17.9313 76.5159 17.9313C75.7182 17.9313 74.9659 18.0671 74.2588 18.3385C73.57 18.6099 72.8357 18.999 72.0562 19.5057L70.7509 16.737C71.6936 16.1217 72.6726 15.6602 73.6878 15.3526C74.7211 15.0449 75.8089 14.8911 76.951 14.8911C79.0902 14.8911 80.749 15.4069 81.9274 16.4384C83.1239 17.4518 83.7221 18.9266 83.7221 20.863V24.5818C83.7221 25.0161 83.7856 25.3237 83.9125 25.5047C84.0575 25.6676 84.3022 25.7671 84.6467 25.8033V29.4136C84.2841 29.4859 83.9397 29.5402 83.6133 29.5764C83.3052 29.6126 83.0332 29.6307 82.7975 29.6307C81.9817 29.6307 81.3563 29.4679 80.9212 29.1421C80.5042 28.8164 80.2414 28.373 80.1326 27.812L80.051 27.1877C79.4165 28.002 78.6551 28.6264 77.7668 29.0607C76.8966 29.4769 75.9811 29.685 75.0203 29.685C74.0776 29.685 73.2255 29.4859 72.4641 29.0878C71.7208 28.6897 71.1316 28.1468 70.6965 27.4591C70.2614 26.7715 70.0439 26.0024 70.0439 25.1518ZM78.6914 25.6947C78.8908 25.5319 79.0539 25.3509 79.1808 25.1518C79.3077 24.9528 79.3712 24.7628 79.3712 24.5818V23.306C79.0086 23.1612 78.6007 23.0526 78.1475 22.9803C77.7124 22.8898 77.3045 22.8445 76.9238 22.8445C76.1261 22.8445 75.4644 23.0255 74.9387 23.3874C74.4129 23.7313 74.1501 24.1927 74.1501 24.7718C74.1501 25.0975 74.2407 25.3961 74.422 25.6676C74.6033 25.939 74.848 26.1562 75.1562 26.3191C75.4825 26.4819 75.8633 26.5634 76.2983 26.5634C76.7334 26.5634 77.1685 26.4819 77.6036 26.3191C78.0387 26.1562 78.4013 25.9481 78.6914 25.6947Z" fill="#282020"/>
<path d="M93.7004 29.685C92.4857 29.685 91.4071 29.4859 90.4644 29.0878C89.5216 28.6897 88.7149 28.1468 88.0441 27.4591C87.3915 26.7715 86.893 25.9843 86.5485 25.0975C86.2041 24.2108 86.0318 23.2698 86.0318 22.2745C86.0318 20.9715 86.331 19.7591 86.9292 18.6371C87.5456 17.5151 88.4249 16.6103 89.567 15.9226C90.7091 15.2349 92.0869 14.8911 93.7004 14.8911C95.332 14.8911 96.7097 15.244 97.8337 15.9498C98.9759 16.6374 99.8279 17.5423 100.39 18.6642L96.1478 19.94C95.8758 19.5057 95.5223 19.1709 95.0872 18.9357C94.6702 18.7004 94.1989 18.5828 93.6732 18.5828C93.0749 18.5828 92.531 18.7366 92.0416 19.0443C91.5702 19.3519 91.1895 19.7772 90.8994 20.3201C90.6275 20.863 90.4915 21.5144 90.4915 22.2745C90.4915 23.0164 90.6366 23.6679 90.9266 24.2289C91.2167 24.7899 91.5974 25.2333 92.0688 25.559C92.5401 25.8666 93.0749 26.0205 93.6732 26.0205C94.0357 26.0205 94.3711 25.9662 94.6793 25.8576C95.0056 25.7309 95.2957 25.559 95.5495 25.3418C95.8214 25.1247 96.0299 24.8804 96.1749 24.6089L100.417 25.9119C100.073 26.6357 99.5741 27.2872 98.9215 27.8663C98.287 28.4273 97.5346 28.8707 96.6644 29.1964C95.7942 29.5221 94.8062 29.685 93.7004 29.685Z" fill="#282020"/>
<path d="M111.983 29.4136L108.257 23.7132L106.734 25.2604V29.4136H102.384V9.59789H106.734V21.053L111.575 15.1626H116.171L111.031 21.2973L116.606 29.4136H111.983Z" fill="#282020"/>
<path d="M123.974 29.685C122.76 29.685 121.681 29.495 120.738 29.115C119.795 28.7168 118.989 28.183 118.318 27.5134C117.665 26.8439 117.167 26.0748 116.822 25.2061C116.478 24.3194 116.306 23.3965 116.306 22.4374C116.306 21.062 116.605 19.8134 117.203 18.6914C117.819 17.5513 118.699 16.6374 119.841 15.9498C120.983 15.244 122.361 14.8911 123.974 14.8911C125.588 14.8911 126.956 15.2349 128.08 15.9226C129.222 16.6103 130.093 17.5151 130.691 18.6371C131.289 19.741 131.588 20.9444 131.588 22.2473C131.588 22.5007 131.57 22.754 131.534 23.0074C131.516 23.2427 131.498 23.4508 131.479 23.6317H120.928C120.983 24.2651 121.155 24.799 121.445 25.2333C121.753 25.6676 122.143 26.0024 122.614 26.2376C123.086 26.4548 123.584 26.5634 124.11 26.5634C124.763 26.5634 125.37 26.4095 125.932 26.1019C126.512 25.7943 126.911 25.378 127.129 24.8532L130.827 25.8847C130.464 26.6267 129.948 27.2872 129.277 27.8663C128.624 28.4273 127.845 28.8707 126.938 29.1964C126.05 29.5221 125.062 29.685 123.974 29.685ZM120.82 20.9715H127.02C126.947 20.3744 126.775 19.8586 126.503 19.4243C126.231 18.9719 125.869 18.628 125.415 18.3928C124.962 18.1394 124.464 18.0128 123.92 18.0128C123.358 18.0128 122.85 18.1394 122.397 18.3928C121.962 18.628 121.608 18.9719 121.336 19.4243C121.064 19.8586 120.892 20.3744 120.82 20.9715Z" fill="#282020"/>
<path d="M142.616 18.8814C141.564 18.8814 140.612 19.0533 139.76 19.3971C138.908 19.7229 138.292 20.2115 137.911 20.863V29.4136H133.56V15.1626H137.558V18.0399C138.047 17.0808 138.682 16.3298 139.461 15.7869C140.241 15.244 141.056 14.9635 141.909 14.9454C142.108 14.9454 142.253 14.9454 142.344 14.9454C142.452 14.9454 142.543 14.9545 142.616 14.9725V18.8814Z" fill="#282020"/>
<path d="M144.802 29.4136V10.1408H153.504C154.41 10.1408 155.244 10.3308 156.005 10.7108C156.785 11.0728 157.456 11.5704 158.018 12.2038C158.58 12.8191 159.015 13.5158 159.323 14.2939C159.649 15.0721 159.812 15.8593 159.812 16.6555C159.812 17.4518 159.685 18.2118 159.432 18.9357C159.178 19.6414 158.815 20.2839 158.344 20.863C157.873 21.424 157.311 21.8854 156.658 22.2473L160.9 29.4136H155.978L152.28 23.1974H149.261V29.4136H144.802ZM149.261 19.3157H153.34C153.703 19.3157 154.02 19.2071 154.292 18.99C154.582 18.7547 154.818 18.438 154.999 18.0399C155.18 17.6418 155.271 17.1803 155.271 16.6555C155.271 16.1307 155.162 15.6783 154.945 15.2983C154.745 14.9002 154.492 14.5925 154.183 14.3754C153.875 14.1582 153.549 14.0496 153.204 14.0496H149.261V19.3157Z" fill="#DA0606"/>
<path d="M161.503 25.1518C161.503 24.2108 161.765 23.3874 162.291 22.6817C162.817 21.9759 163.542 21.424 164.467 21.0258C165.391 20.6096 166.452 20.4015 167.648 20.4015C168.228 20.4015 168.799 20.4558 169.361 20.5644C169.923 20.6549 170.413 20.7906 170.83 20.9715V20.3472C170.83 19.5691 170.594 18.9719 170.123 18.5557C169.652 18.1394 168.935 17.9313 167.975 17.9313C167.177 17.9313 166.425 18.0671 165.718 18.3385C165.029 18.6099 164.294 18.999 163.515 19.5057L162.21 16.737C163.152 16.1217 164.131 15.6602 165.146 15.3526C166.18 15.0449 167.268 14.8911 168.41 14.8911C170.549 14.8911 172.208 15.4069 173.386 16.4384C174.583 17.4518 175.181 18.9266 175.181 20.863V24.5818C175.181 25.0161 175.244 25.3237 175.371 25.5047C175.516 25.6676 175.761 25.7671 176.105 25.8033V29.4136C175.743 29.4859 175.398 29.5402 175.072 29.5764C174.764 29.6126 174.492 29.6307 174.256 29.6307C173.44 29.6307 172.815 29.4679 172.38 29.1421C171.963 28.8164 171.7 28.373 171.591 27.812L171.51 27.1877C170.875 28.002 170.114 28.6264 169.225 29.0607C168.355 29.4769 167.44 29.685 166.479 29.685C165.536 29.685 164.684 29.4859 163.923 29.0878C163.18 28.6897 162.59 28.1468 162.155 27.4591C161.72 26.7715 161.503 26.0024 161.503 25.1518ZM170.15 25.6947C170.349 25.5319 170.513 25.3509 170.64 25.1518C170.766 24.9528 170.83 24.7628 170.83 24.5818V23.306C170.467 23.1612 170.059 23.0526 169.606 22.9803C169.171 22.8898 168.763 22.8445 168.382 22.8445C167.585 22.8445 166.923 23.0255 166.397 23.3874C165.872 23.7313 165.609 24.1927 165.609 24.7718C165.609 25.0975 165.699 25.3961 165.881 25.6676C166.062 25.939 166.307 26.1562 166.615 26.3191C166.941 26.4819 167.322 26.5634 167.757 26.5634C168.192 26.5634 168.627 26.4819 169.062 26.3191C169.497 26.1562 169.86 25.9481 170.15 25.6947Z" fill="#DA0606"/>
<path d="M178.334 29.4136V15.1626H182.684V29.4136H178.334ZM180.434 11.498L178.334 9.59789H182.684V13.5339L180.434 11.498Z" fill="#DA0606"/>
<path d="M184.847 22.2745C184.847 20.8811 185.119 19.6324 185.663 18.5285C186.207 17.4065 186.95 16.5198 187.893 15.8683C188.836 15.2169 189.923 14.8911 191.156 14.8911C192.153 14.8911 193.06 15.1354 193.875 15.624C194.691 16.0945 195.308 16.7189 195.724 17.497V9.59789H200.075V24.5818C200.075 25.0161 200.148 25.3237 200.293 25.5047C200.438 25.6676 200.674 25.7671 201 25.8033V29.4136C200.239 29.5583 199.622 29.6307 199.151 29.6307C198.408 29.6307 197.8 29.4679 197.329 29.1421C196.876 28.8164 196.595 28.364 196.486 27.7849L196.404 27.052C195.897 27.9387 195.208 28.5992 194.338 29.0335C193.467 29.4678 192.552 29.685 191.591 29.685C190.612 29.685 189.706 29.504 188.872 29.1421C188.056 28.7621 187.34 28.2373 186.724 27.5677C186.125 26.8981 185.663 26.1109 185.337 25.2061C185.01 24.3013 184.847 23.3241 184.847 22.2745ZM195.752 24.0389V21.053C195.57 20.5644 195.308 20.1391 194.963 19.7772C194.637 19.4152 194.256 19.1257 193.821 18.9085C193.404 18.6914 192.978 18.5828 192.543 18.5828C192.072 18.5828 191.636 18.6823 191.238 18.8814C190.857 19.0805 190.522 19.361 190.231 19.7229C189.941 20.0667 189.715 20.4648 189.552 20.9173C189.407 21.3697 189.334 21.8492 189.334 22.3559C189.334 22.8807 189.416 23.3693 189.579 23.8217C189.76 24.2561 190.005 24.6451 190.313 24.989C190.621 25.3147 190.984 25.5681 191.401 25.749C191.818 25.93 192.271 26.0205 192.76 26.0205C193.069 26.0205 193.368 25.9752 193.658 25.8847C193.948 25.7762 194.22 25.6404 194.474 25.4776C194.746 25.3147 194.99 25.1066 195.208 24.8532C195.425 24.5999 195.607 24.3284 195.752 24.0389Z" fill="#DA0606"/>
<path fill-rule="evenodd" clip-rule="evenodd" d="M1.04021 4.98639C0.465718 5.16171 0.142384 5.76873 0.318023 6.34219L10.6266 40C10.6266 40 10.6266 40 10.6267 40V40C10.6267 40 10.6267 40 10.6267 40L10.3504 39.098C10.3073 38.9574 10.3866 38.8086 10.5274 38.7656L11.7553 38.3909C11.8962 38.3479 12.0452 38.427 12.0883 38.5676L12.276 39.1805C12.3249 39.3402 12.4942 39.43 12.6542 39.3812V39.3812C12.8142 39.3324 12.9042 39.1634 12.8553 39.0037L12.6676 38.3908C12.6245 38.2503 12.7038 38.1014 12.8447 38.0585L14.0725 37.6837C14.2134 37.6407 14.3625 37.7199 14.4055 37.8605L14.5932 38.4733C14.6421 38.633 14.8115 38.7229 14.9714 38.674V38.674C15.1314 38.6252 15.2214 38.4562 15.1725 38.2965L14.9848 37.6837C14.9418 37.5431 15.021 37.3943 15.1619 37.3513L16.3897 36.9766C16.5306 36.9336 16.6797 37.0127 16.7227 37.1533L16.9104 37.7661C16.9593 37.9258 17.1287 38.0157 17.2886 37.9669V37.9669C17.4486 37.918 17.5386 37.749 17.4897 37.5893L17.302 36.9765C17.259 36.8359 17.3382 36.6871 17.4791 36.6441L18.707 36.2694C18.8478 36.2264 18.9969 36.3055 19.0399 36.4461L19.2276 37.0589C19.2766 37.2186 19.4459 37.3085 19.6059 37.2597V37.2597C19.7658 37.2109 19.8559 37.0418 19.8069 36.8821L19.6192 36.2693C19.5762 36.1287 19.6555 35.9799 19.7963 35.9369L21.0242 35.5622C21.165 35.5192 21.3141 35.5983 21.3572 35.7389L21.5449 36.3518C21.5938 36.5115 21.7631 36.6013 21.9231 36.5525V36.5525C22.083 36.5037 22.1731 36.3347 22.1242 36.175L21.9365 35.5621C21.8934 35.4215 21.9727 35.2727 22.1135 35.2297L23.3414 34.855C23.4822 34.812 23.6313 34.8912 23.6744 35.0317L23.8621 35.6446C23.911 35.8043 24.0803 35.8941 24.2403 35.8453V35.8453C24.4002 35.7965 24.4903 35.6275 24.4414 35.4678L24.2537 34.855C24.2106 34.7144 24.2899 34.5656 24.4307 34.5226L25.6586 34.1478C25.7994 34.1049 25.9485 34.184 25.9916 34.3246L26.1793 34.9374C26.2282 35.0971 26.3975 35.187 26.5575 35.1381V35.1381C26.7175 35.0893 26.8075 34.9203 26.7586 34.7606L26.5709 34.1478C26.5278 34.0072 26.6071 33.8584 26.7479 33.8154V33.8154C27.247 33.6631 27.5278 33.1358 27.3753 32.6376L17.6971 1.03835C17.5215 0.464886 16.9134 0.142132 16.3389 0.31746L12.6263 1.45051C12.0518 1.62584 11.7509 2.24208 11.7133 2.84057C11.6367 4.06175 10.8165 5.16444 9.5751 5.54329C8.33374 5.92213 7.03602 5.46581 6.28839 4.49618C5.92198 4.02098 5.32732 3.67804 4.75283 3.85336L1.04021 4.98639ZM24.3304 31.3916C23.7559 31.5669 23.1478 31.2441 22.9721 30.6707L22.8997 30.4343C22.7241 29.8608 23.0474 29.2538 23.6219 29.0785L23.8587 29.0062C24.4332 28.8309 25.0413 29.1537 25.2169 29.7271L25.2893 29.9635C25.465 30.537 25.1416 31.144 24.5672 31.3193L24.3304 31.3916ZM10.8772 32.968C10.3028 33.1433 9.97942 33.7503 10.1551 34.3238L10.2275 34.5602C10.4031 35.1336 11.0112 35.4564 11.5857 35.2811L11.8225 35.2088C12.397 35.0335 12.7203 34.4265 12.5447 33.853L12.4723 33.6166C12.2966 33.0432 11.6885 32.7204 11.114 32.8957L10.8772 32.968ZM23.2677 27.922C22.6932 28.0973 22.0851 27.7745 21.9095 27.2011L21.8371 26.9647C21.6614 26.3912 21.9848 25.7842 22.5592 25.6089L22.7961 25.5366C23.3705 25.3613 23.9786 25.684 24.1543 26.2575L24.2267 26.4939C24.4023 27.0674 24.079 27.6744 23.5045 27.8497L23.2677 27.922ZM9.81458 29.4984C9.24009 29.6737 8.91676 30.2807 9.0924 30.8542L9.1648 31.0906C9.34043 31.664 9.94853 31.9868 10.523 31.8115L10.7598 31.7392C11.3343 31.5639 11.6576 30.9569 11.482 30.3834L11.4096 30.147C11.234 29.5735 10.6259 29.2508 10.0514 29.4261L9.81458 29.4984ZM22.205 24.4523C21.6305 24.6277 21.0224 24.3049 20.8468 23.7315L20.7744 23.4951C20.5988 22.9216 20.9221 22.3146 21.4966 22.1393L21.7334 22.067C22.3079 21.8917 22.916 22.2144 23.0916 22.7879L23.164 23.0243C23.3397 23.5977 23.0163 24.2048 22.4418 24.3801L22.205 24.4523ZM8.75191 26.0288C8.17742 26.2041 7.85409 26.8111 8.02973 27.3846L8.10213 27.6209C8.27776 28.1944 8.88586 28.5172 9.46035 28.3418L9.69716 28.2696C10.2716 28.0942 10.595 27.4872 10.4193 26.9138L10.3469 26.6774C10.1713 26.1039 9.5632 25.7812 8.98871 25.9565L8.75191 26.0288ZM21.1424 20.9827C20.5679 21.158 19.9598 20.8353 19.7841 20.2618L19.7117 20.0254C19.5361 19.452 19.8594 18.845 20.4339 18.6696L20.6707 18.5974C21.2452 18.422 21.8533 18.7448 22.029 19.3183L22.1014 19.5547C22.277 20.1281 21.9537 20.7351 21.3792 20.9105L21.1424 20.9827ZM7.68925 22.5591C7.11476 22.7345 6.79143 23.3415 6.96706 23.9149L7.03946 24.1513C7.2151 24.7248 7.8232 25.0475 8.39769 24.8722L8.6345 24.7999C9.20898 24.6246 9.53232 24.0176 9.35668 23.4441L9.28428 23.2078C9.10864 22.6343 8.50054 22.3115 7.92605 22.4869L7.68925 22.5591ZM20.0797 17.5131C19.5052 17.6885 18.8971 17.3657 18.7215 16.7922L18.6491 16.5559C18.4734 15.9824 18.7968 15.3754 19.3713 15.2001L19.6081 15.1278C20.1825 14.9525 20.7906 15.2752 20.9663 15.8487L21.0387 16.0851C21.2143 16.6585 20.891 17.2655 20.3165 17.4409L20.0797 17.5131ZM6.62658 19.0895C6.0521 19.2649 5.72876 19.8719 5.9044 20.4453L5.9768 20.6817C6.15244 21.2552 6.76054 21.5779 7.33503 21.4026L7.57183 21.3303C8.14632 21.155 8.46965 20.548 8.29402 19.9745L8.22162 19.7382C8.04598 19.1647 7.43788 18.8419 6.86339 19.0173L6.62658 19.0895ZM19.017 14.0435C18.4425 14.2188 17.8344 13.8961 17.6588 13.3226L17.5864 13.0862C17.4108 12.5128 17.7341 11.9057 18.3086 11.7304L18.5454 11.6581C19.1199 11.4828 19.728 11.8056 19.9036 12.379L19.976 12.6154C20.1517 13.1889 19.8283 13.7959 19.2538 13.9712L19.017 14.0435ZM5.56391 15.6199C4.98942 15.7952 4.66609 16.4023 4.84173 16.9757L4.91413 17.2121C5.08977 17.7856 5.69787 18.1083 6.27236 17.933L6.50916 17.8607C7.08365 17.6854 7.40698 17.0784 7.23134 16.5049L7.15895 16.2685C6.98331 15.6951 6.37521 15.3723 5.80072 15.5476L5.56391 15.6199ZM17.9544 10.5739C17.3799 10.7492 16.7718 10.4265 16.5961 9.85302L16.5237 9.61664C16.3481 9.04317 16.6714 8.43616 17.2459 8.26084L17.4827 8.18857C18.0572 8.01324 18.6653 8.336 18.841 8.90946L18.9134 9.14584C19.089 9.71931 18.7657 10.3263 18.1912 10.5016L17.9544 10.5739ZM4.50125 12.1503C3.92676 12.3256 3.60343 12.9326 3.77907 13.5061L3.85147 13.7425C4.02711 14.3159 4.63521 14.6387 5.2097 14.4633L5.4465 14.3911C6.02099 14.2158 6.34432 13.6087 6.16868 13.0353L6.09628 12.7989C5.92064 12.2254 5.31255 11.9027 4.73806 12.078L4.50125 12.1503ZM16.8917 7.10427C16.3172 7.27959 15.7091 6.95684 15.5335 6.38338L15.4611 6.14699C15.2854 5.57353 15.6088 4.96652 16.1833 4.79119L16.4201 4.71892C16.9946 4.5436 17.6027 4.86635 17.7783 5.43981L17.8507 5.6762C18.0263 6.24966 17.703 6.85667 17.1285 7.032L16.8917 7.10427ZM3.43859 8.68069C2.8641 8.85601 2.54077 9.46303 2.7164 10.0365L2.7888 10.2729C2.96444 10.8463 3.57254 11.1691 4.14703 10.9938L4.38384 10.9215C4.95832 10.7462 5.28166 10.1392 5.10602 9.5657L5.03362 9.32931C4.85798 8.75585 4.24988 8.43309 3.67539 8.60842L3.43859 8.68069Z" fill="#282020"/>
<path fill-rule="evenodd" clip-rule="evenodd" d="M33.3081 5.85468C33.3814 5.72801 33.3379 5.56604 33.211 5.4929V5.4929C33.0841 5.41977 32.9218 5.46317 32.8486 5.58984L32.5839 6.04738C32.5103 6.1747 32.3472 6.21832 32.2197 6.14481L31.303 5.6165C31.1754 5.54299 31.1317 5.38019 31.2054 5.25287L31.47 4.79533C31.5432 4.66866 31.4998 4.50669 31.3729 4.43356V4.43356C31.246 4.36042 31.0837 4.40382 31.0105 4.53049L30.7458 4.98803C30.6722 5.11535 30.5091 5.15897 30.3815 5.08546L29.4648 4.55715C29.3373 4.48364 29.2936 4.32084 29.3672 4.19352L29.6319 3.73598C29.7051 3.60931 29.6616 3.44734 29.5348 3.37421V3.37421C29.4079 3.30108 29.2456 3.34448 29.1723 3.47115L28.9077 3.92869C28.8341 4.056 28.671 4.09963 28.5434 4.02612L27.6267 3.4978C27.4992 3.42429 27.4555 3.26149 27.5291 3.13418L27.7937 2.67664C27.867 2.54997 27.8235 2.388 27.6966 2.31486V2.31486C27.5697 2.24173 27.4075 2.28513 27.3342 2.4118L27.0696 2.86934C26.9959 2.99666 26.8328 3.04028 26.7053 2.96677V2.96677C26.3253 2.74775 25.8393 2.87773 25.6199 3.25709L11.1731 28.2351C10.8727 28.7544 11.0509 29.4185 11.5712 29.7183L14.2825 31.2809C14.8027 31.5807 15.4602 31.3753 15.9432 31.0188C16.7665 30.4111 17.9053 30.3107 18.8487 30.8544C19.7921 31.3981 20.2744 32.4327 20.1588 33.4483C20.091 34.0441 20.2416 34.7152 20.7618 35.015L23.4731 36.5776C23.9934 36.8774 24.6586 36.6995 24.959 36.1802L39.936 10.2856C39.8621 10.4123 39.6994 10.4555 39.5722 10.3822L38.6555 9.85388C38.5279 9.78038 38.4842 9.61757 38.5578 9.49026L38.8225 9.03272C38.8957 8.90605 38.8523 8.74408 38.7254 8.67094V8.67094C38.5985 8.59781 38.4362 8.64121 38.3629 8.76788L38.0983 9.22542C38.0247 9.35274 37.8616 9.39636 37.734 9.32285L36.8173 8.79454C36.6898 8.72103 36.6461 8.55823 36.7197 8.43091L36.9844 7.97337C37.0576 7.8467 37.0141 7.68473 36.8872 7.6116V7.6116C36.7603 7.53846 36.5981 7.58186 36.5248 7.70853L36.2602 8.16607C36.1866 8.29339 36.0235 8.33701 35.8959 8.26351L34.9792 7.73519C34.8517 7.66168 34.808 7.49888 34.8816 7.37156L35.1462 6.91402C35.2195 6.78735 35.176 6.62538 35.0491 6.55225V6.55225C34.9222 6.47912 34.76 6.52252 34.6867 6.64919L34.4221 7.10673C34.3484 7.23404 34.1853 7.27767 34.0578 7.20416L33.1411 6.67584C33.0135 6.60234 32.9698 6.43953 33.0435 6.31222L33.3081 5.85468ZM26.5288 5.92311C27.0363 6.21564 27.2102 6.86352 26.9172 7.3702V7.3702C26.6241 7.87688 25.9751 8.05048 25.4675 7.75795V7.75795C24.9599 7.46542 24.786 6.81753 25.0791 6.31085V6.31085C25.3721 5.80418 26.0212 5.63058 26.5288 5.92311V5.92311ZM35.5772 13.5844C36.0848 13.8769 36.7338 13.7033 37.0269 13.1966V13.1966C37.3199 12.6899 37.146 12.042 36.6384 11.7495V11.7495C36.1308 11.457 35.4818 11.6306 35.1887 12.1373V12.1373C34.8957 12.6439 35.0696 13.2918 35.5772 13.5844V13.5844ZM24.9369 8.67534C25.4445 8.96788 25.6184 9.61576 25.3253 10.1224V10.1224C25.0323 10.6291 24.3832 10.8027 23.8757 10.5102V10.5102C23.3681 10.2177 23.1942 9.56977 23.4872 9.06309V9.06309C23.7803 8.55642 24.4293 8.38281 24.9369 8.67534V8.67534ZM33.9853 16.3366C34.4929 16.6291 35.142 16.4555 35.435 15.9488V15.9488C35.7281 15.4422 35.5542 14.7943 35.0466 14.5018V14.5018C34.539 14.2092 33.8899 14.3828 33.5969 14.8895V14.8895C33.3038 15.3962 33.4777 16.0441 33.9853 16.3366V16.3366ZM23.345 11.4276C23.8526 11.7201 24.0265 12.368 23.7335 12.8747V12.8747C23.4404 13.3814 22.7914 13.555 22.2838 13.2625V13.2625C21.7762 12.9699 21.6023 12.322 21.8953 11.8154V11.8154C22.1884 11.3087 22.8374 11.1351 23.345 11.4276V11.4276ZM32.3935 19.0889C32.9011 19.3814 33.5501 19.2078 33.8431 18.7011V18.7011C34.1362 18.1944 33.9623 17.5466 33.4547 17.254V17.254C32.9471 16.9615 32.2981 17.1351 32.005 17.6418V17.6418C31.712 18.1484 31.8859 18.7963 32.3935 19.0889V19.0889ZM21.7532 14.1799C22.2608 14.4724 22.4347 15.1203 22.1416 15.627V15.627C21.8486 16.1337 21.1995 16.3073 20.6919 16.0147V16.0147C20.1843 15.7222 20.0104 15.0743 20.3035 14.5676V14.5676C20.5965 14.061 21.2456 13.8874 21.7532 14.1799V14.1799ZM30.8016 21.8411C31.3092 22.1337 31.9582 21.9601 32.2513 21.4534V21.4534C32.5443 20.9467 32.3704 20.2988 31.8628 20.0063V20.0063C31.3553 19.7138 30.7062 19.8874 30.4132 20.394V20.394C30.1201 20.9007 30.294 21.5486 30.8016 21.8411V21.8411ZM20.1613 16.9322C20.6689 17.2247 20.8428 17.8726 20.5497 18.3793V18.3793C20.2567 18.8859 19.6076 19.0595 19.1001 18.767V18.767C18.5925 18.4745 18.4186 17.8266 18.7116 17.3199V17.3199C19.0047 16.8132 19.6537 16.6396 20.1613 16.9322V16.9322ZM29.2097 24.5934C29.7173 24.8859 30.3664 24.7123 30.6594 24.2057V24.2057C30.9525 23.699 30.7786 23.0511 30.271 22.7586V22.7586C29.7634 22.466 29.1144 22.6396 28.8213 23.1463V23.1463C28.5282 23.653 28.7022 24.3009 29.2097 24.5934V24.5934ZM18.5694 19.6844C19.077 19.9769 19.2509 20.6248 18.9579 21.1315V21.1315C18.6648 21.6382 18.0158 21.8118 17.5082 21.5192V21.5192C17.0006 21.2267 16.8267 20.5788 17.1198 20.0721V20.0721C17.4128 19.5655 18.0619 19.3919 18.5694 19.6844V19.6844ZM27.6179 27.3456C28.1255 27.6382 28.7745 27.4646 29.0676 26.9579V26.9579C29.3606 26.4512 29.1867 25.8033 28.6791 25.5108V25.5108C28.1715 25.2183 27.5225 25.3919 27.2294 25.8986V25.8986C26.9364 26.4052 27.1103 27.0531 27.6179 27.3456V27.3456ZM16.9776 22.4367C17.4852 22.7292 17.6591 23.3771 17.366 23.8838V23.8838C17.073 24.3904 16.4239 24.564 15.9163 24.2715V24.2715C15.4088 23.979 15.2349 23.3311 15.5279 22.8244V22.8244C15.821 22.3177 16.47 22.1441 16.9776 22.4367V22.4367ZM26.026 30.0979C26.5336 30.3905 27.1827 30.2168 27.4757 29.7102V29.7102C27.7688 29.2035 27.5948 28.5556 27.0873 28.2631V28.2631C26.5797 27.9705 25.9306 28.1441 25.6376 28.6508V28.6508C25.3445 29.1575 25.5184 29.8054 26.026 30.0979V30.0979ZM15.3857 25.1889C15.8933 25.4815 16.0672 26.1294 15.7742 26.636V26.636C15.4811 27.1427 14.8321 27.3163 14.3245 27.0238V27.0238C13.8169 26.7313 13.643 26.0834 13.936 25.5767V25.5767C14.2291 25.07 14.8781 24.8964 15.3857 25.1889V25.1889ZM24.4342 32.8502C24.9417 33.1427 25.5908 32.9691 25.8838 32.4624V32.4624C26.1769 31.9558 26.003 31.3079 25.4954 31.0154V31.0154C24.9878 30.7228 24.3388 30.8964 24.0457 31.4031V31.4031C23.7527 31.9098 23.9266 32.5577 24.4342 32.8502V32.8502Z" fill="#DA0606"/>
</svg>
