<svg width="16" height="16" viewBox="0 0 16 16" fill="none" xmlns="http://www.w3.org/2000/svg">
<g clip-path="url(#clip0_109_1105)">
<path d="M8.5 6H7.5V15H8.5V6Z" fill="#282020"/>
<path d="M5.665 9.11C5.29755 8.78169 5.00356 8.3795 4.80227 7.92973C4.60098 7.47996 4.49693 6.99276 4.49693 6.5C4.49693 6.00724 4.60098 5.52004 4.80227 5.07027C5.00356 4.6205 5.29755 4.21831 5.665 3.89L6.335 4.635C6.0723 4.86951 5.8621 5.15688 5.71818 5.47828C5.57426 5.79967 5.49987 6.14785 5.49987 6.5C5.49987 6.85215 5.57426 7.20033 5.71818 7.52172C5.8621 7.84312 6.0723 8.13049 6.335 8.365L5.665 9.11Z" fill="#282020"/>
<path d="M10.335 9.11L9.66499 8.365C9.9277 8.13049 10.1379 7.84312 10.2818 7.52172C10.4257 7.20033 10.5001 6.85215 10.5001 6.5C10.5001 6.14785 10.4257 5.79967 10.2818 5.47828C10.1379 5.15688 9.9277 4.86951 9.66499 4.635L10.335 3.89C10.7024 4.21831 10.9964 4.6205 11.1977 5.07027C11.399 5.52004 11.5031 6.00724 11.5031 6.5C11.5031 6.99276 11.399 7.47996 11.1977 7.92973C10.9964 8.3795 10.7024 8.78169 10.335 9.11Z" fill="#282020"/>
<path d="M4.2 10.9C3.51692 10.3877 2.9625 9.72338 2.58065 8.95967C2.1988 8.19597 2 7.35385 2 6.5C2 5.64615 2.1988 4.80403 2.58065 4.04032C2.9625 3.27662 3.51692 2.61231 4.2 2.1L4.8 2.9C4.24112 3.31916 3.7875 3.86269 3.47508 4.48754C3.16265 5.11239 3 5.8014 3 6.5C3 7.1986 3.16265 7.88761 3.47508 8.51246C3.7875 9.13731 4.24112 9.68084 4.8 10.1L4.2 10.9Z" fill="#282020"/>
<path d="M11.8 10.9L11.2 10.1C11.7589 9.68084 12.2125 9.13731 12.5249 8.51246C12.8373 7.88761 13 7.1986 13 6.5C13 5.8014 12.8373 5.11239 12.5249 4.48754C12.2125 3.86269 11.7589 3.31916 11.2 2.9L11.8 2.1C12.4831 2.61231 13.0375 3.27662 13.4193 4.04032C13.8012 4.80403 14 5.64615 14 6.5C14 7.35385 13.8012 8.19597 13.4193 8.95967C13.0375 9.72338 12.4831 10.3877 11.8 10.9Z" fill="#282020"/>
</g>
<defs>
<clipPath id="clip0_109_1105">
<rect width="16" height="16" fill="white"/>
</clipPath>
</defs>
</svg>
