<svg width="33" height="41" viewBox="0 0 33 41" fill="none" xmlns="http://www.w3.org/2000/svg">
<path d="M0 0.853638H32.1568V9.08894H0V0.853638Z" fill="#282020"/>
<path d="M6.07816 25.9518V21.0247H8.40757C8.63815 21.0247 8.84521 21.0647 9.02874 21.1447C9.21227 21.22 9.36757 21.3259 9.49462 21.4624C9.62639 21.5989 9.72757 21.7659 9.79815 21.9636C9.86874 22.1565 9.90404 22.3683 9.90404 22.5989C9.90404 22.8342 9.86874 23.0483 9.79815 23.2412C9.72757 23.4341 9.62639 23.5989 9.49462 23.7353C9.36757 23.8718 9.21227 23.98 9.02874 24.06C8.84521 24.1353 8.63815 24.173 8.40757 24.173H7.1511V25.9518H6.07816ZM7.1511 23.2412H8.28051C8.44051 23.2412 8.56521 23.2012 8.65463 23.1212C8.74874 23.0365 8.7958 22.9141 8.7958 22.7541V22.4436C8.7958 22.2836 8.74874 22.1636 8.65463 22.0836C8.56521 21.9989 8.44051 21.9565 8.28051 21.9565H7.1511V23.2412Z" fill="#282020"/>
<path d="M13.8376 25.1683H13.8023C13.7646 25.4177 13.6376 25.6247 13.4211 25.7894C13.2046 25.9541 12.9105 26.0365 12.5387 26.0365C12.2564 26.0365 11.9929 25.9824 11.7482 25.8741C11.5034 25.7659 11.2893 25.6059 11.1058 25.3941C10.9223 25.1824 10.7787 24.9189 10.6752 24.6036C10.5717 24.2883 10.5199 23.9236 10.5199 23.5094C10.5199 23.0953 10.574 22.7283 10.6823 22.4083C10.7905 22.0883 10.9411 21.82 11.134 21.6036C11.3317 21.3871 11.567 21.2224 11.8399 21.1094C12.1129 20.9965 12.4164 20.94 12.7505 20.94C13.1929 20.94 13.574 21.0365 13.894 21.2294C14.214 21.4177 14.4658 21.7024 14.6493 22.0836L13.774 22.5847C13.6987 22.3918 13.5811 22.2294 13.4211 22.0977C13.2611 21.9612 13.0376 21.893 12.7505 21.893C12.4164 21.893 12.1505 21.9894 11.9529 22.1824C11.7552 22.3753 11.6564 22.6789 11.6564 23.093V23.8836C11.6564 24.293 11.7552 24.5965 11.9529 24.7941C12.1505 24.9871 12.4164 25.0836 12.7505 25.0836C12.8823 25.0836 13.007 25.0694 13.1246 25.0412C13.2423 25.0083 13.3458 24.9612 13.4352 24.9C13.5246 24.8341 13.5929 24.7565 13.6399 24.6671C13.6917 24.5777 13.7176 24.4718 13.7176 24.3494V24.1024H12.7999V23.2059H14.7411V25.9518H13.8376V25.1683Z" fill="#282020"/>
<path d="M15.6836 24.3071V23.2906H17.78V24.3071H15.6836Z" fill="#282020"/>
<path d="M18.8199 25.9518V25.0977H20.147V21.7942H20.0835L19.0811 23.1071L18.4035 22.5777L19.5823 21.0247H21.2058V25.0977H22.2505V25.9518H18.8199Z" fill="#282020"/>
<path d="M24.2384 22.973C24.5019 22.973 24.6925 22.9236 24.8101 22.8247C24.9325 22.7212 24.9936 22.5941 24.9936 22.4436V22.3942C24.9936 22.2153 24.9348 22.0718 24.8172 21.9636C24.7042 21.8553 24.5419 21.8012 24.3301 21.8012C24.1325 21.8012 23.9466 21.853 23.7725 21.9565C23.5984 22.0553 23.4501 22.1989 23.3278 22.3871L22.6642 21.7659C22.7584 21.6436 22.8595 21.533 22.9678 21.4342C23.076 21.3306 23.1984 21.2436 23.3348 21.173C23.4713 21.0977 23.6242 21.0412 23.7936 21.0036C23.9631 20.9612 24.1536 20.94 24.3654 20.94C24.6289 20.94 24.8666 20.9706 25.0784 21.0318C25.2948 21.093 25.4784 21.1824 25.6289 21.3C25.7842 21.413 25.9019 21.5494 25.9819 21.7094C26.0666 21.8694 26.1089 22.0483 26.1089 22.2459C26.1089 22.4012 26.0831 22.5424 26.0313 22.6694C25.9842 22.7965 25.916 22.9071 25.8266 23.0012C25.7419 23.0953 25.6431 23.173 25.5301 23.2341C25.4172 23.2906 25.2972 23.3306 25.1701 23.3541V23.3965C25.316 23.4247 25.4501 23.4718 25.5725 23.5377C25.6995 23.5989 25.8078 23.6789 25.8972 23.7777C25.9913 23.8765 26.0642 23.9941 26.116 24.1306C26.1678 24.2624 26.1936 24.413 26.1936 24.5824C26.1936 24.8036 26.1489 25.0036 26.0595 25.1824C25.9701 25.3612 25.8431 25.5141 25.6784 25.6412C25.5136 25.7683 25.316 25.8671 25.0854 25.9377C24.8548 26.0036 24.6007 26.0365 24.3231 26.0365C24.0736 26.0365 23.8525 26.0106 23.6595 25.9589C23.4666 25.9071 23.2972 25.8389 23.1513 25.7541C23.0101 25.6647 22.8854 25.5636 22.7772 25.4506C22.6736 25.3377 22.5819 25.2177 22.5019 25.0906L23.2854 24.4836C23.3936 24.6859 23.5254 24.853 23.6807 24.9847C23.8407 25.1118 24.0548 25.1753 24.3231 25.1753C24.5631 25.1753 24.7489 25.1165 24.8807 24.9989C25.0172 24.8765 25.0854 24.7118 25.0854 24.5047V24.4624C25.0854 24.26 25.0078 24.1094 24.8525 24.0106C24.7019 23.9071 24.4925 23.8553 24.2242 23.8553H23.7795V22.973H24.2384Z" fill="#282020"/>
<path fill-rule="evenodd" clip-rule="evenodd" d="M31.7647 9.08896H0.392157V40.4615H31.7647V9.08896ZM0 8.69681V40.8537H32.1568V8.69681H0Z" fill="#282020"/>
<path d="M10.7386 6.34385H10.1425V3.6066H11.4406C11.5661 3.6066 11.6798 3.62751 11.7818 3.66934C11.8837 3.71117 11.97 3.7713 12.0406 3.84974C12.1138 3.92555 12.17 4.01706 12.2092 4.12424C12.2484 4.23143 12.268 4.35039 12.268 4.48111C12.268 4.66673 12.2262 4.82882 12.1425 4.96738C12.0615 5.10594 11.9373 5.2066 11.77 5.26934L12.3073 6.34385H11.6445L11.1661 5.33993H10.7386V6.34385ZM11.3661 4.83797C11.455 4.83797 11.5242 4.81575 11.5739 4.7713C11.6262 4.72424 11.6524 4.65627 11.6524 4.56738V4.39483C11.6524 4.30594 11.6262 4.23928 11.5739 4.19483C11.5242 4.14777 11.455 4.12424 11.3661 4.12424H10.7386V4.83797H11.3661Z" fill="white"/>
<path d="M14.4713 6.34385L14.2752 5.69287H13.3615L13.1654 6.34385H12.5615L13.4634 3.6066H14.2007L15.0909 6.34385H14.4713ZM13.8242 4.14777H13.8046L13.5027 5.18699H14.1301L13.8242 4.14777Z" fill="white"/>
<path d="M16.3542 4.13601V6.34385H15.7581V4.13601H15.0169V3.6066H17.0954V4.13601H16.3542Z" fill="white"/>
<path d="M17.5032 6.34385V3.6066H19.3659V4.13601H18.0992V4.69679H19.1855V5.22228H18.0992V5.81444H19.3659V6.34385H17.5032Z" fill="white"/>
<path d="M19.8852 3.6066H20.9166C21.097 3.6066 21.2617 3.63536 21.4107 3.69287C21.5597 3.75039 21.6865 3.83666 21.7911 3.9517C21.8957 4.06411 21.9767 4.2066 22.0342 4.37915C22.0917 4.54908 22.1205 4.74777 22.1205 4.97523C22.1205 5.20268 22.0917 5.40268 22.0342 5.57523C21.9767 5.74516 21.8957 5.88764 21.7911 6.00268C21.6865 6.11509 21.5597 6.20006 21.4107 6.25758C21.2617 6.31509 21.097 6.34385 20.9166 6.34385H19.8852V3.6066ZM20.9166 5.81444C21.0943 5.81444 21.2342 5.76477 21.3362 5.66542C21.4381 5.56608 21.4891 5.4066 21.4891 5.18699V4.76346C21.4891 4.54385 21.4381 4.38438 21.3362 4.28503C21.2342 4.18568 21.0943 4.13601 20.9166 4.13601H20.4813V5.81444H20.9166Z" fill="white"/>
</svg>
