<svg width="73" height="35" viewBox="0 0 73 35" fill="none" xmlns="http://www.w3.org/2000/svg">
<rect x="1" y="1" width="71" height="33" rx="5" fill="#DA0606"/>
<path d="M37.4607 15.02V21H36.3307V15.02H34.2507V14.02H39.5407V15.02H37.4607ZM41.1122 14.87C40.8856 14.87 40.7189 14.8167 40.6122 14.71C40.5122 14.6033 40.4622 14.4667 40.4622 14.3V14.13C40.4622 13.9633 40.5122 13.8267 40.6122 13.72C40.7189 13.6133 40.8856 13.56 41.1122 13.56C41.3389 13.56 41.5022 13.6133 41.6022 13.72C41.7022 13.8267 41.7522 13.9633 41.7522 14.13V14.3C41.7522 14.4667 41.7022 14.6033 41.6022 14.71C41.5022 14.8167 41.3389 14.87 41.1122 14.87ZM40.5622 15.8H41.6522V21H40.5622V15.8ZM45.2187 21.12C44.8454 21.12 44.512 21.0567 44.2187 20.93C43.9254 20.8033 43.6787 20.6233 43.4787 20.39C43.2787 20.15 43.1254 19.8633 43.0187 19.53C42.912 19.19 42.8587 18.8133 42.8587 18.4C42.8587 17.9867 42.912 17.6133 43.0187 17.28C43.1254 16.94 43.2787 16.6533 43.4787 16.42C43.6787 16.18 43.9254 15.9967 44.2187 15.87C44.512 15.7433 44.8454 15.68 45.2187 15.68C45.7387 15.68 46.1654 15.7967 46.4987 16.03C46.832 16.2633 47.0754 16.5733 47.2287 16.96L46.3287 17.38C46.2554 17.14 46.1254 16.95 45.9387 16.81C45.7587 16.6633 45.5187 16.59 45.2187 16.59C44.8187 16.59 44.5154 16.7167 44.3087 16.97C44.1087 17.2167 44.0087 17.54 44.0087 17.94V18.87C44.0087 19.27 44.1087 19.5967 44.3087 19.85C44.5154 20.0967 44.8187 20.22 45.2187 20.22C45.5387 20.22 45.792 20.1433 45.9787 19.99C46.172 19.83 46.3254 19.62 46.4387 19.36L47.2687 19.8C47.0954 20.2267 46.8354 20.5533 46.4887 20.78C46.142 21.0067 45.7187 21.12 45.2187 21.12ZM48.3064 13.6H49.3964V18.14H49.4464L50.1664 17.21L51.4164 15.8H52.6864L50.8664 17.81L52.9064 21H51.6064L50.1164 18.52L49.3964 19.3V21H48.3064V13.6ZM55.6003 21.12C55.2269 21.12 54.8936 21.0567 54.6003 20.93C54.3069 20.8033 54.0569 20.6233 53.8503 20.39C53.6436 20.15 53.4836 19.8633 53.3703 19.53C53.2636 19.19 53.2103 18.8133 53.2103 18.4C53.2103 17.9867 53.2636 17.6133 53.3703 17.28C53.4836 16.94 53.6436 16.6533 53.8503 16.42C54.0569 16.18 54.3069 15.9967 54.6003 15.87C54.8936 15.7433 55.2269 15.68 55.6003 15.68C55.9803 15.68 56.3136 15.7467 56.6003 15.88C56.8936 16.0133 57.1369 16.2 57.3303 16.44C57.5236 16.6733 57.6669 16.9467 57.7603 17.26C57.8603 17.5733 57.9103 17.91 57.9103 18.27V18.68H54.3403V18.85C54.3403 19.25 54.4569 19.58 54.6903 19.84C54.9303 20.0933 55.2703 20.22 55.7103 20.22C56.0303 20.22 56.3003 20.15 56.5203 20.01C56.7403 19.87 56.9269 19.68 57.0803 19.44L57.7203 20.07C57.5269 20.39 57.2469 20.6467 56.8803 20.84C56.5136 21.0267 56.0869 21.12 55.6003 21.12ZM55.6003 16.53C55.4136 16.53 55.2403 16.5633 55.0803 16.63C54.9269 16.6967 54.7936 16.79 54.6803 16.91C54.5736 17.03 54.4903 17.1733 54.4303 17.34C54.3703 17.5067 54.3403 17.69 54.3403 17.89V17.96H56.7603V17.86C56.7603 17.46 56.6569 17.14 56.4503 16.9C56.2436 16.6533 55.9603 16.53 55.6003 16.53ZM60.5569 21C60.1769 21 59.8902 20.9033 59.6969 20.71C59.5036 20.51 59.4069 20.23 59.4069 19.87V16.69H58.5969V15.8H59.0369C59.2169 15.8 59.3402 15.76 59.4069 15.68C59.4802 15.6 59.5169 15.47 59.5169 15.29V14.38H60.4969V15.8H61.5869V16.69H60.4969V20.11H61.5069V21H60.5569Z" fill="white"/>
<rect x="1" y="1" width="71" height="33" rx="5" stroke="#DA0606" stroke-width="2"/>
<g clip-path="url(#clip0_143_1118)">
<path d="M27.75 16.5C27.9489 16.5 28.1397 16.421 28.2803 16.2803C28.421 16.1397 28.5 15.9489 28.5 15.75V12C28.5 11.6022 28.342 11.2206 28.0607 10.9393C27.7794 10.658 27.3978 10.5 27 10.5H9C8.60218 10.5 8.22064 10.658 7.93934 10.9393C7.65804 11.2206 7.5 11.6022 7.5 12V15.75C7.5 15.9489 7.57902 16.1397 7.71967 16.2803C7.86032 16.421 8.05109 16.5 8.25 16.5C8.64782 16.5 9.02936 16.658 9.31066 16.9393C9.59196 17.2206 9.75 17.6022 9.75 18C9.75 18.3978 9.59196 18.7794 9.31066 19.0607C9.02936 19.342 8.64782 19.5 8.25 19.5C8.05109 19.5 7.86032 19.579 7.71967 19.7197C7.57902 19.8603 7.5 20.0511 7.5 20.25V24C7.5 24.3978 7.65804 24.7794 7.93934 25.0607C8.22064 25.342 8.60218 25.5 9 25.5H27C27.3978 25.5 27.7794 25.342 28.0607 25.0607C28.342 24.7794 28.5 24.3978 28.5 24V20.25C28.5 20.0511 28.421 19.8603 28.2803 19.7197C28.1397 19.579 27.9489 19.5 27.75 19.5C27.3522 19.5 26.9706 19.342 26.6893 19.0607C26.408 18.7794 26.25 18.3978 26.25 18C26.25 17.6022 26.408 17.2206 26.6893 16.9393C26.9706 16.658 27.3522 16.5 27.75 16.5V16.5ZM27 20.9025V24H21.75V21.75H20.25V24H9V20.9025C9.642 20.7347 10.2102 20.3588 10.6158 19.8336C11.0214 19.3084 11.2414 18.6636 11.2414 18C11.2414 17.3364 11.0214 16.6916 10.6158 16.1664C10.2102 15.6412 9.642 15.2653 9 15.0975V12H20.25V14.25H21.75V12H27V15.0975C26.358 15.2653 25.7898 15.6412 25.3842 16.1664C24.9786 16.6916 24.7586 17.3364 24.7586 18C24.7586 18.6636 24.9786 19.3084 25.3842 19.8336C25.7898 20.3588 26.358 20.7347 27 20.9025V20.9025Z" fill="white"/>
<path d="M21.75 15.75H20.25V20.25H21.75V15.75Z" fill="white"/>
</g>
<defs>
<clipPath id="clip0_143_1118">
<rect width="24" height="24" fill="white" transform="translate(6 6)"/>
</clipPath>
</defs>
</svg>
