<svg width="41" height="40" viewBox="0 0 41 40" fill="none" xmlns="http://www.w3.org/2000/svg">
<path fill-rule="evenodd" clip-rule="evenodd" d="M1.04021 4.98639C0.465717 5.16171 0.142385 5.76873 0.318024 6.34219L10.6266 40C10.6266 40 10.6266 40 10.6267 40C10.6267 40 10.6267 40 10.6267 40L10.3504 39.098C10.3073 38.9574 10.3866 38.8086 10.5274 38.7656L11.7553 38.3909C11.8962 38.3479 12.0452 38.427 12.0883 38.5676L12.276 39.1805C12.3249 39.3402 12.4942 39.43 12.6542 39.3812C12.8142 39.3324 12.9042 39.1634 12.8553 39.0037L12.6676 38.3908C12.6245 38.2503 12.7038 38.1014 12.8447 38.0585L14.0725 37.6837C14.2134 37.6407 14.3625 37.7199 14.4055 37.8605L14.5932 38.4733C14.6421 38.633 14.8115 38.7229 14.9714 38.674C15.1314 38.6252 15.2214 38.4562 15.1725 38.2965L14.9848 37.6837C14.9418 37.5431 15.021 37.3943 15.1619 37.3513L16.3897 36.9766C16.5306 36.9336 16.6797 37.0127 16.7227 37.1533L16.9104 37.7661C16.9593 37.9258 17.1287 38.0157 17.2886 37.9669C17.4486 37.918 17.5386 37.749 17.4897 37.5893L17.302 36.9765C17.259 36.8359 17.3382 36.6871 17.4791 36.6441L18.707 36.2694C18.8478 36.2264 18.9969 36.3055 19.0399 36.4461L19.2276 37.0589C19.2766 37.2186 19.4459 37.3085 19.6059 37.2597C19.7658 37.2109 19.8559 37.0418 19.8069 36.8821L19.6192 36.2693C19.5762 36.1287 19.6555 35.9799 19.7963 35.9369L21.0242 35.5622C21.165 35.5192 21.3141 35.5983 21.3572 35.7389L21.5449 36.3518C21.5938 36.5114 21.7631 36.6013 21.9231 36.5525C22.083 36.5037 22.1731 36.3347 22.1242 36.175L21.9365 35.5621C21.8934 35.4215 21.9727 35.2727 22.1135 35.2297L23.3414 34.855C23.4822 34.812 23.6313 34.8912 23.6744 35.0317L23.8621 35.6446C23.911 35.8043 24.0803 35.8941 24.2403 35.8453C24.4002 35.7965 24.4903 35.6275 24.4414 35.4678L24.2537 34.855C24.2106 34.7144 24.2899 34.5656 24.4307 34.5226L25.6586 34.1478C25.7994 34.1049 25.9485 34.184 25.9916 34.3246L26.1793 34.9374C26.2282 35.0971 26.3975 35.187 26.5575 35.1381C26.7175 35.0893 26.8075 34.9203 26.7586 34.7606L26.5709 34.1478C26.5278 34.0072 26.6071 33.8584 26.7479 33.8154C27.247 33.6631 27.5278 33.1358 27.3753 32.6376L17.6971 1.03835C17.5215 0.464887 16.9134 0.142131 16.3389 0.31746L12.6263 1.45051C12.0518 1.62584 11.7509 2.24208 11.7133 2.84057C11.6367 4.06175 10.8165 5.16444 9.5751 5.54329C8.33374 5.92213 7.03602 5.4658 6.28839 4.49618C5.92198 4.02098 5.32732 3.67804 4.75283 3.85336L1.04021 4.98639ZM24.3304 31.3916C23.7559 31.5669 23.1478 31.2441 22.9721 30.6707L22.8997 30.4343C22.7241 29.8608 23.0474 29.2538 23.6219 29.0785L23.8587 29.0062C24.4332 28.8309 25.0413 29.1537 25.2169 29.7271L25.2893 29.9635C25.465 30.537 25.1416 31.144 24.5672 31.3193L24.3304 31.3916ZM10.8772 32.968C10.3028 33.1433 9.97942 33.7503 10.1551 34.3238L10.2275 34.5602C10.4031 35.1336 11.0112 35.4564 11.5857 35.2811L11.8225 35.2088C12.397 35.0335 12.7203 34.4265 12.5447 33.853L12.4723 33.6166C12.2966 33.0432 11.6885 32.7204 11.114 32.8957L10.8772 32.968ZM23.2677 27.922C22.6932 28.0973 22.0851 27.7745 21.9095 27.2011L21.8371 26.9647C21.6614 26.3912 21.9848 25.7842 22.5592 25.6089L22.7961 25.5366C23.3705 25.3613 23.9786 25.684 24.1543 26.2575L24.2267 26.4939C24.4023 27.0674 24.079 27.6744 23.5045 27.8497L23.2677 27.922ZM9.81458 29.4984C9.24009 29.6737 8.91676 30.2807 9.0924 30.8542L9.1648 31.0906C9.34043 31.664 9.94853 31.9868 10.523 31.8115L10.7598 31.7392C11.3343 31.5639 11.6576 30.9569 11.482 30.3834L11.4096 30.147C11.234 29.5735 10.6259 29.2508 10.0514 29.4261L9.81458 29.4984ZM22.205 24.4523C21.6305 24.6277 21.0224 24.3049 20.8468 23.7315L20.7744 23.4951C20.5988 22.9216 20.9221 22.3146 21.4966 22.1393L21.7334 22.067C22.3079 21.8917 22.916 22.2144 23.0916 22.7879L23.164 23.0243C23.3397 23.5977 23.0163 24.2048 22.4418 24.3801L22.205 24.4523ZM8.75191 26.0288C8.17742 26.2041 7.85409 26.8111 8.02973 27.3846L8.10213 27.6209C8.27776 28.1944 8.88586 28.5172 9.46035 28.3418L9.69716 28.2696C10.2716 28.0942 10.595 27.4872 10.4193 26.9138L10.3469 26.6774C10.1713 26.1039 9.5632 25.7812 8.98871 25.9565L8.75191 26.0288ZM21.1424 20.9827C20.5679 21.158 19.9598 20.8353 19.7841 20.2618L19.7117 20.0254C19.5361 19.452 19.8594 18.845 20.4339 18.6696L20.6707 18.5974C21.2452 18.422 21.8533 18.7448 22.029 19.3183L22.1014 19.5547C22.277 20.1281 21.9537 20.7351 21.3792 20.9105L21.1424 20.9827ZM7.68925 22.5591C7.11476 22.7345 6.79143 23.3415 6.96706 23.9149L7.03946 24.1513C7.2151 24.7248 7.8232 25.0475 8.39769 24.8722L8.6345 24.7999C9.20898 24.6246 9.53232 24.0176 9.35668 23.4441L9.28428 23.2078C9.10864 22.6343 8.50054 22.3115 7.92605 22.4869L7.68925 22.5591ZM20.0797 17.5131C19.5052 17.6885 18.8971 17.3657 18.7215 16.7922L18.6491 16.5559C18.4734 15.9824 18.7968 15.3754 19.3713 15.2001L19.6081 15.1278C20.1825 14.9525 20.7906 15.2752 20.9663 15.8487L21.0387 16.0851C21.2143 16.6585 20.891 17.2655 20.3165 17.4409L20.0797 17.5131ZM6.62658 19.0895C6.0521 19.2649 5.72876 19.8719 5.9044 20.4453L5.9768 20.6817C6.15244 21.2552 6.76054 21.5779 7.33503 21.4026L7.57183 21.3303C8.14632 21.155 8.46965 20.548 8.29401 19.9745L8.22162 19.7382C8.04598 19.1647 7.43788 18.8419 6.86339 19.0173L6.62658 19.0895ZM19.017 14.0435C18.4425 14.2188 17.8344 13.8961 17.6588 13.3226L17.5864 13.0862C17.4108 12.5128 17.7341 11.9057 18.3086 11.7304L18.5454 11.6581C19.1199 11.4828 19.728 11.8056 19.9036 12.379L19.976 12.6154C20.1517 13.1889 19.8283 13.7959 19.2538 13.9712L19.017 14.0435ZM5.56391 15.6199C4.98942 15.7952 4.66609 16.4023 4.84173 16.9757L4.91413 17.2121C5.08977 17.7856 5.69787 18.1083 6.27236 17.933L6.50916 17.8607C7.08365 17.6854 7.40698 17.0784 7.23134 16.5049L7.15895 16.2685C6.98331 15.6951 6.37521 15.3723 5.80072 15.5476L5.56391 15.6199ZM17.9544 10.5739C17.3799 10.7492 16.7718 10.4265 16.5961 9.85302L16.5237 9.61664C16.3481 9.04317 16.6714 8.43616 17.2459 8.26083L17.4827 8.18857C18.0572 8.01324 18.6653 8.336 18.841 8.90946L18.9134 9.14584C19.089 9.71931 18.7657 10.3263 18.1912 10.5016L17.9544 10.5739ZM4.50125 12.1503C3.92676 12.3256 3.60343 12.9326 3.77907 13.5061L3.85147 13.7425C4.02711 14.3159 4.63521 14.6387 5.2097 14.4633L5.4465 14.3911C6.02099 14.2158 6.34432 13.6087 6.16868 13.0353L6.09628 12.7989C5.92064 12.2254 5.31255 11.9027 4.73806 12.078L4.50125 12.1503ZM16.8917 7.10427C16.3172 7.2796 15.7091 6.95684 15.5335 6.38338L15.4611 6.14699C15.2854 5.57353 15.6088 4.96652 16.1833 4.79119L16.4201 4.71892C16.9946 4.5436 17.6027 4.86635 17.7783 5.43981L17.8507 5.6762C18.0263 6.24966 17.703 6.85668 17.1285 7.032L16.8917 7.10427ZM3.43859 8.68069C2.8641 8.85601 2.54077 9.46303 2.7164 10.0365L2.7888 10.2729C2.96444 10.8463 3.57254 11.1691 4.14703 10.9938L4.38384 10.9215C4.95832 10.7462 5.28166 10.1392 5.10602 9.5657L5.03362 9.32931C4.85798 8.75585 4.24988 8.43309 3.67539 8.60842L3.43859 8.68069Z" fill="#282020"/>
<path fill-rule="evenodd" clip-rule="evenodd" d="M33.3081 5.85471C33.3814 5.72804 33.3379 5.56606 33.211 5.49293C33.0841 5.4198 32.9218 5.4632 32.8486 5.58987L32.5839 6.04741C32.5103 6.17473 32.3472 6.21835 32.2197 6.14484L31.303 5.61652C31.1754 5.54302 31.1317 5.38022 31.2054 5.2529L31.47 4.79536C31.5432 4.66869 31.4998 4.50672 31.3729 4.43359C31.246 4.36045 31.0837 4.40385 31.0105 4.53052L30.7458 4.98806C30.6722 5.11538 30.5091 5.159 30.3815 5.08549L29.4648 4.55718C29.3373 4.48367 29.2936 4.32087 29.3672 4.19355L29.6319 3.73601C29.7051 3.60934 29.6616 3.44737 29.5348 3.37424C29.4079 3.30111 29.2456 3.34451 29.1723 3.47118L28.9077 3.92871C28.8341 4.05603 28.671 4.09966 28.5434 4.02615L27.6267 3.49783C27.4992 3.42432 27.4555 3.26152 27.5291 3.1342L27.7937 2.67667C27.867 2.55 27.8235 2.38802 27.6966 2.31489C27.5697 2.24176 27.4075 2.28516 27.3342 2.41183L27.0696 2.86937C26.9959 2.99669 26.8328 3.04031 26.7053 2.9668C26.3253 2.74778 25.8393 2.87776 25.6199 3.25712L11.1731 28.2351C10.8727 28.7544 11.0509 29.4185 11.5712 29.7183L14.2825 31.2809C14.8027 31.5807 15.4602 31.3754 15.9432 31.0188C16.7665 30.4111 17.9053 30.3108 18.8487 30.8544C19.7921 31.3981 20.2744 32.4327 20.1588 33.4483C20.091 34.0442 20.2416 34.7152 20.7618 35.0151L23.4731 36.5776C23.9934 36.8775 24.6586 36.6995 24.959 36.1802L39.936 10.2856C39.8621 10.4123 39.6994 10.4556 39.5722 10.3822L38.6555 9.85391C38.5279 9.78041 38.4842 9.6176 38.5578 9.49029L38.8225 9.03275C38.8957 8.90608 38.8523 8.74411 38.7254 8.67097C38.5985 8.59784 38.4362 8.64124 38.3629 8.76791L38.0983 9.22545C38.0247 9.35277 37.8616 9.39639 37.734 9.32288L36.8173 8.79457C36.6898 8.72106 36.6461 8.55826 36.7197 8.43094L36.9844 7.9734C37.0576 7.84673 37.0141 7.68476 36.8872 7.61163C36.7603 7.53849 36.5981 7.58189 36.5248 7.70856L36.2602 8.1661C36.1866 8.29342 36.0235 8.33704 35.8959 8.26354L34.9792 7.73522C34.8517 7.66171 34.808 7.49891 34.8816 7.37159L35.1462 6.91405C35.2195 6.78738 35.176 6.62541 35.0491 6.55228C34.9222 6.47915 34.76 6.52255 34.6867 6.64922L34.4221 7.10676C34.3484 7.23407 34.1853 7.2777 34.0578 7.20419L33.1411 6.67587C33.0135 6.60236 32.9698 6.43956 33.0435 6.31225L33.3081 5.85471ZM26.5288 5.92314C27.0363 6.21567 27.2102 6.86355 26.9172 7.37023C26.6241 7.87691 25.9751 8.05051 25.4675 7.75798C24.9599 7.46545 24.786 6.81756 25.0791 6.31088C25.3721 5.80421 26.0212 5.6306 26.5288 5.92314ZM35.5772 13.5844C36.0848 13.8769 36.7338 13.7033 37.0269 13.1966C37.3199 12.69 37.146 12.0421 36.6384 11.7495C36.1308 11.457 35.4818 11.6306 35.1887 12.1373C34.8957 12.644 35.0696 13.2919 35.5772 13.5844ZM24.9369 8.67537C25.4445 8.9679 25.6184 9.61579 25.3253 10.1225C25.0323 10.6291 24.3832 10.8027 23.8757 10.5102C23.3681 10.2177 23.1942 9.5698 23.4872 9.06312C23.7803 8.55645 24.4293 8.38284 24.9369 8.67537ZM33.9853 16.3366C34.4929 16.6292 35.142 16.4556 35.435 15.9489C35.7281 15.4422 35.5542 14.7943 35.0466 14.5018C34.539 14.2093 33.8899 14.3829 33.5969 14.8895C33.3038 15.3962 33.4777 16.0441 33.9853 16.3366ZM23.345 11.4276C23.8526 11.7202 24.0265 12.3681 23.7335 12.8747C23.4404 13.3814 22.7914 13.555 22.2838 13.2625C21.7762 12.97 21.6023 12.3221 21.8953 11.8154C22.1884 11.3087 22.8374 11.1351 23.345 11.4276ZM32.3935 19.0889C32.9011 19.3814 33.5501 19.2078 33.8431 18.7011C34.1362 18.1945 33.9623 17.5466 33.4547 17.2541C32.9471 16.9615 32.2981 17.1351 32.005 17.6418C31.712 18.1485 31.8859 18.7964 32.3935 19.0889ZM21.7532 14.1799C22.2608 14.4724 22.4347 15.1203 22.1416 15.627C21.8486 16.1337 21.1995 16.3073 20.6919 16.0148C20.1843 15.7222 20.0104 15.0743 20.3035 14.5677C20.5965 14.061 21.2456 13.8874 21.7532 14.1799ZM30.8016 21.8412C31.3092 22.1337 31.9582 21.9601 32.2513 21.4534C32.5443 20.9467 32.3704 20.2989 31.8628 20.0063C31.3553 19.7138 30.7062 19.8874 30.4132 20.3941C30.1201 20.9008 30.294 21.5486 30.8016 21.8412ZM20.1613 16.9322C20.6689 17.2247 20.8428 17.8726 20.5497 18.3793C20.2567 18.886 19.6076 19.0596 19.1001 18.767C18.5925 18.4745 18.4186 17.8266 18.7116 17.3199C19.0047 16.8133 19.6537 16.6397 20.1613 16.9322ZM29.2097 24.5934C29.7173 24.886 30.3664 24.7124 30.6594 24.2057C30.9525 23.699 30.7786 23.0511 30.271 22.7586C29.7634 22.4661 29.1144 22.6397 28.8213 23.1463C28.5282 23.653 28.7022 24.3009 29.2097 24.5934ZM18.5694 19.6844C19.077 19.977 19.2509 20.6248 18.9579 21.1315C18.6648 21.6382 18.0158 21.8118 17.5082 21.5193C17.0006 21.2267 16.8267 20.5789 17.1198 20.0722C17.4128 19.5655 18.0619 19.3919 18.5694 19.6844ZM27.6179 27.3457C28.1255 27.6382 28.7745 27.4646 29.0676 26.9579C29.3606 26.4513 29.1867 25.8034 28.6791 25.5108C28.1715 25.2183 27.5225 25.3919 27.2294 25.8986C26.9364 26.4053 27.1103 27.0531 27.6179 27.3457ZM16.9776 22.4367C17.4852 22.7292 17.6591 23.3771 17.366 23.8838C17.073 24.3905 16.4239 24.5641 15.9163 24.2715C15.4088 23.979 15.2349 23.3311 15.5279 22.8244C15.821 22.3178 16.47 22.1442 16.9776 22.4367ZM26.026 30.098C26.5336 30.3905 27.1827 30.2169 27.4757 29.7102C27.7688 29.2035 27.5948 28.5556 27.0873 28.2631C26.5797 27.9706 25.9306 28.1442 25.6376 28.6509C25.3445 29.1575 25.5184 29.8054 26.026 30.098ZM15.3857 25.189C15.8933 25.4815 16.0672 26.1294 15.7742 26.6361C15.4811 27.1427 14.8321 27.3163 14.3245 27.0238C13.8169 26.7313 13.643 26.0834 13.936 25.5767C14.2291 25.07 14.8781 24.8964 15.3857 25.189ZM24.4342 32.8502C24.9417 33.1428 25.5908 32.9692 25.8838 32.4625C26.1769 31.9558 26.003 31.3079 25.4954 31.0154C24.9878 30.7228 24.3388 30.8965 24.0457 31.4031C23.7527 31.9098 23.9266 32.5577 24.4342 32.8502Z" fill="#DA0606"/>
</svg>
